<mxfile host="app.diagrams.net" modified="2021-10-30T06:40:24.759Z" agent="5.0 (Windows)" etag="CzHPaDfAXvWm_g-hdkaK" version="15.6.2" type="github">
  <diagram id="C5RBs43oDa-KdzZeNtuy" name="Page-1">
    <mxGraphModel dx="1422" dy="950" grid="1" gridSize="10" guides="1" tooltips="1" connect="1" arrows="1" fold="1" page="1" pageScale="1" pageWidth="827" pageHeight="1169" math="0" shadow="0">
      <root>
        <mxCell id="WIyWlLk6GJQsqaUBKTNV-0" />
        <mxCell id="WIyWlLk6GJQsqaUBKTNV-1" parent="WIyWlLk6GJQsqaUBKTNV-0" />
        <mxCell id="W7xjYRwC-Du2TRU0WcZi-11" value="" style="edgeStyle=orthogonalEdgeStyle;rounded=0;orthogonalLoop=1;jettySize=auto;html=1;" parent="WIyWlLk6GJQsqaUBKTNV-1" source="W7xjYRwC-Du2TRU0WcZi-9" target="W7xjYRwC-Du2TRU0WcZi-10" edge="1">
          <mxGeometry relative="1" as="geometry" />
        </mxCell>
        <mxCell id="W7xjYRwC-Du2TRU0WcZi-9" value="&lt;div&gt;开始&lt;/div&gt;" style="rounded=1;whiteSpace=wrap;html=1;" parent="WIyWlLk6GJQsqaUBKTNV-1" vertex="1">
          <mxGeometry x="207.5" y="90" width="120" height="40" as="geometry" />
        </mxCell>
        <mxCell id="W7xjYRwC-Du2TRU0WcZi-36" value="" style="edgeStyle=orthogonalEdgeStyle;rounded=0;orthogonalLoop=1;jettySize=auto;html=1;entryX=0.5;entryY=0;entryDx=0;entryDy=0;" parent="WIyWlLk6GJQsqaUBKTNV-1" source="W7xjYRwC-Du2TRU0WcZi-10" target="W7xjYRwC-Du2TRU0WcZi-39" edge="1">
          <mxGeometry relative="1" as="geometry">
            <mxPoint x="266.5" y="360" as="targetPoint" />
            <Array as="points" />
          </mxGeometry>
        </mxCell>
        <mxCell id="W7xjYRwC-Du2TRU0WcZi-10" value="&lt;div&gt;是否配置客户&lt;/div&gt;khh" style="rhombus;whiteSpace=wrap;html=1;" parent="WIyWlLk6GJQsqaUBKTNV-1" vertex="1">
          <mxGeometry x="192.5" y="180" width="150" height="80" as="geometry" />
        </mxCell>
        <mxCell id="W7xjYRwC-Du2TRU0WcZi-22" value="No" style="rounded=0;html=1;jettySize=auto;orthogonalLoop=1;fontSize=11;endArrow=block;endFill=0;endSize=8;strokeWidth=1;shadow=0;labelBackgroundColor=none;edgeStyle=orthogonalEdgeStyle;" parent="WIyWlLk6GJQsqaUBKTNV-1" source="W7xjYRwC-Du2TRU0WcZi-24" target="W7xjYRwC-Du2TRU0WcZi-25" edge="1">
          <mxGeometry x="0.3333" y="20" relative="1" as="geometry">
            <mxPoint as="offset" />
          </mxGeometry>
        </mxCell>
        <mxCell id="W7xjYRwC-Du2TRU0WcZi-23" value="Yes" style="edgeStyle=orthogonalEdgeStyle;rounded=0;html=1;jettySize=auto;orthogonalLoop=1;fontSize=11;endArrow=block;endFill=0;endSize=8;strokeWidth=1;shadow=0;labelBackgroundColor=none;" parent="WIyWlLk6GJQsqaUBKTNV-1" source="W7xjYRwC-Du2TRU0WcZi-24" target="W7xjYRwC-Du2TRU0WcZi-26" edge="1">
          <mxGeometry y="10" relative="1" as="geometry">
            <mxPoint as="offset" />
          </mxGeometry>
        </mxCell>
        <mxCell id="W7xjYRwC-Du2TRU0WcZi-24" value="根据khh + 日期&lt;br&gt;&lt;div&gt;读取MySQL&lt;/div&gt;&lt;div&gt;是否返回WTH&lt;/div&gt;" style="rhombus;whiteSpace=wrap;html=1;shadow=0;fontFamily=Helvetica;fontSize=12;align=center;strokeWidth=1;spacing=6;spacingTop=-4;" parent="WIyWlLk6GJQsqaUBKTNV-1" vertex="1">
          <mxGeometry x="372.5" y="165" width="150" height="110" as="geometry" />
        </mxCell>
        <mxCell id="W7xjYRwC-Du2TRU0WcZi-25" value="从Oracle 读取khh(1) 同步" style="rounded=1;whiteSpace=wrap;html=1;fontSize=12;glass=0;strokeWidth=1;shadow=0;" parent="WIyWlLk6GJQsqaUBKTNV-1" vertex="1">
          <mxGeometry x="365" y="325" width="165" height="60" as="geometry" />
        </mxCell>
        <mxCell id="W7xjYRwC-Du2TRU0WcZi-26" value="根据khh+wth从oracle同步到Mysql" style="rounded=1;whiteSpace=wrap;html=1;fontSize=12;glass=0;strokeWidth=1;shadow=0;" parent="WIyWlLk6GJQsqaUBKTNV-1" vertex="1">
          <mxGeometry x="559.5" y="200" width="120" height="40" as="geometry" />
        </mxCell>
        <mxCell id="W7xjYRwC-Du2TRU0WcZi-29" value="Yes" style="edgeStyle=orthogonalEdgeStyle;rounded=0;html=1;jettySize=auto;orthogonalLoop=1;fontSize=11;endArrow=block;endFill=0;strokeWidth=1;shadow=0;labelBackgroundColor=none;exitX=1;exitY=0.5;exitDx=0;exitDy=0;entryX=0;entryY=0.5;entryDx=0;entryDy=0;" parent="WIyWlLk6GJQsqaUBKTNV-1" source="W7xjYRwC-Du2TRU0WcZi-10" target="W7xjYRwC-Du2TRU0WcZi-24" edge="1">
          <mxGeometry y="10" relative="1" as="geometry">
            <mxPoint as="offset" />
            <mxPoint x="522.5" y="225" as="sourcePoint" />
            <mxPoint x="372.5" y="220" as="targetPoint" />
            <Array as="points" />
          </mxGeometry>
        </mxCell>
        <mxCell id="W7xjYRwC-Du2TRU0WcZi-37" value="no" style="text;html=1;strokeColor=none;fillColor=none;align=center;verticalAlign=middle;whiteSpace=wrap;rounded=0;" parent="WIyWlLk6GJQsqaUBKTNV-1" vertex="1">
          <mxGeometry x="246.5" y="290" width="60" height="30" as="geometry" />
        </mxCell>
        <mxCell id="W7xjYRwC-Du2TRU0WcZi-39" value="1.1根据日期&lt;br&gt;&lt;div&gt;读取MySQL&lt;/div&gt;&lt;div&gt;是否返回KHH1+ WTH&lt;br&gt;&lt;/div&gt;&lt;div&gt;1.2读取Oracle&lt;br&gt;返回KHH2&lt;/div&gt;&lt;div&gt;1.3 结合khh1 (wth)+ khh2(1)&lt;br&gt;根据 1.3 同步&lt;br&gt;&lt;/div&gt;" style="rhombus;whiteSpace=wrap;html=1;shadow=0;fontFamily=Helvetica;fontSize=12;align=center;strokeWidth=1;spacing=6;spacingTop=-4;" parent="WIyWlLk6GJQsqaUBKTNV-1" vertex="1">
          <mxGeometry x="120" y="410" width="295" height="180" as="geometry" />
        </mxCell>
      </root>
    </mxGraphModel>
  </diagram>
</mxfile>
